<svg width="184" height="274" viewBox="0 0 184 274" fill="none" xmlns="http://www.w3.org/2000/svg">
<path d="M132.169 77.5472V129.245H145.127V155.094H106.254V51.6981H132.169L93.2958 0L54.4225 51.6981H80.338V155.094H41.4648V128.341C50.5352 123.558 57.0141 114.382 57.0141 103.396C57.0141 87.7575 44.1859 74.9623 28.507 74.9623C12.8282 74.9623 0 87.7575 0 103.396C0 114.382 6.47887 123.558 15.5493 128.341V155.094C15.5493 169.441 27.0817 180.943 41.4648 180.943H80.338V220.363C71.138 225.145 64.7887 234.58 64.7887 245.566C64.7887 261.334 77.6169 274 93.2958 274C108.975 274 121.803 261.334 121.803 245.566C121.803 234.58 115.454 225.145 106.254 220.363V180.943H145.127C159.51 180.943 171.042 169.441 171.042 155.094V129.245H184V77.5472H132.169Z" fill="#C5C5C5"/>
</svg>
